<?xml version="1.0" encoding="UTF-8"?>
<svg width="14px" height="18px" viewBox="0 0 14 18" version="1.1" xmlns="http://www.w3.org/2000/svg" xmlns:xlink="http://www.w3.org/1999/xlink">
    <!-- Generator: Sketch 49 (51002) - http://www.bohemiancoding.com/sketch -->
    <title>Group@3x</title>
    <desc>Created with Sketch.</desc>
    <defs></defs>
    <g id="Symbols" stroke="none" stroke-width="1" fill="none" fill-rule="evenodd">
        <g id="O/Trash" transform="translate(-97.000000, -12.000000)" fill="#FFFFFF">
            <g id="Group" transform="translate(97.000000, 12.000000)">
                <path d="M10.3161579,1.44 C10.3161579,0.64476 9.65631579,0 8.84247368,0 L5.15826316,0 C4.34442105,0 3.68457895,0.64476 3.68457895,1.44 L3.68457895,2.16 L0,2.16 L0,2.88 L0.828947368,2.88 L1.47331579,16.92 C1.47331579,16.92 1.70505263,18 2.57857895,18 L6.63121053,18 L7.36805263,18 L11.4206842,18 C12.2945789,18 12.5263158,16.92 12.5263158,16.92 L13.1404737,2.88 L14,2.88 L14,2.16 L10.3161579,2.16 L10.3161579,1.44 Z M4.42142105,1.44 C4.42142105,1.0422 4.80654386,0.72 5.28107018,0.72 L8.71966667,0.72 C9.19419298,0.72 9.57931579,1.04256 9.57931579,1.44 L9.57931579,2.16 L4.42142105,2.16 L4.42142105,1.44 L4.42142105,1.44 Z M11.4210526,17.27964 L7.36842105,17.27964 L6.63157895,17.27964 L2.57894737,17.27964 C2.57894737,17.27964 2.27242105,17.1162 2.21052632,16.55964 C2.149,16.00308 1.56578947,2.87964 1.56578947,2.87964 L12.3726842,2.87964 C12.3730526,2.87964 11.8513684,16.00308 11.7898421,16.55964 C11.7279474,17.1162 11.4210526,17.27964 11.4210526,17.27964 Z M9.94773684,4.32 L9.21089474,4.32 L8.84247368,15.84 L9.57931579,15.84 L9.94773684,4.32 Z M5.15826316,15.84 L4.78984211,4.32 L4.05263158,4.32 L4.42105263,15.84 L5.15826316,15.84 Z M6.63157895,4.32 L7.36842105,4.32 L7.36842105,15.84 L6.63157895,15.84 L6.63157895,4.32 Z" id="Trash-Icon"></path>
            </g>
        </g>
    </g>
</svg>